<?xml version="1.0" encoding="UTF-8" standalone="no"?>
<svg
   version="1.0"
   width="830pt"
   height="304pt"
   viewBox="0 0 830 304"
   preserveAspectRatio="xMidYMid"
   id="svg12"
   sodipodi:docname="logocapsulas1.svg"
   inkscape:version="1.4 (86a8ad7, 2024-10-11)"
   xmlns:inkscape="http://www.inkscape.org/namespaces/inkscape"
   xmlns:sodipodi="http://sodipodi.sourceforge.net/DTD/sodipodi-0.dtd"
   xmlns="http://www.w3.org/2000/svg"
   xmlns:svg="http://www.w3.org/2000/svg">
  <defs
     id="defs12" />
  <sodipodi:namedview
     id="namedview12"
     pagecolor="#ffffff"
     bordercolor="#000000"
     borderopacity="0.25"
     inkscape:showpageshadow="2"
     inkscape:pageopacity="0.0"
     inkscape:pagecheckerboard="0"
     inkscape:deskcolor="#d1d1d1"
     inkscape:document-units="pt"
     inkscape:zoom="0.8259375"
     inkscape:cx="579.94703"
     inkscape:cy="322.66364"
     inkscape:window-width="1920"
     inkscape:window-height="974"
     inkscape:window-x="-11"
     inkscape:window-y="-11"
     inkscape:window-maximized="1"
     inkscape:current-layer="svg12" />
  <path
     d="m 97.1,103.5 c -12.6,3.6 -20.6,8.9 -26.7,17.9 -5.4,8 -7.4,15.9 -7.4,29 0,17.1 3.4,26.3 13.1,35 10.1,9.1 20.9,12 41.4,11.3 12.8,-0.4 24.5,-2.5 24.5,-4.4 0,-0.3 -1,-4.1 -2.2,-8.5 -2.1,-7.7 -2.2,-7.9 -4.7,-7.3 -5.3,1.3 -25.6,1.7 -29.8,0.6 -11.7,-3.2 -19,-12.5 -20,-25.4 -1.3,-17.6 7.5,-29.2 23.7,-31.1 4.9,-0.6 9.8,-0.2 23.5,2 l 4,0.6 2.2,-6.4 c 1.2,-3.4 2.5,-7 2.8,-7.9 0.5,-1.3 -0.7,-2.1 -5.7,-3.9 -8.4,-2.9 -30.5,-3.8 -38.7,-1.5 z"
     id="path3"
     style="fill:#000000;stroke:none;stroke-width:0.1" />
  <path
     d="m 179,105 c -1.1,2.1 -35,89.8 -35,90.6 0,0.3 5,0.3 11.1,0.2 l 11.1,-0.3 1.7,-4.5 c 1,-2.5 3.2,-8.4 5.1,-13.3 l 3.3,-8.7 h 15.7 15.6 l 4.3,13.5 4.2,13.5 h 11.4 c 6.3,0 11.5,-0.3 11.5,-0.8 0,-0.4 -6.9,-21.2 -15.4,-46.2 l -15.4,-45.5 -14,-0.3 C 180.8,103 180,103 179,105 Z m 18.7,30.2 c 2.3,9 4.1,16.3 4,16.5 -0.6,0.5 -17.8,0.5 -18.4,-0.1 -0.7,-0.7 8.7,-32.6 9.6,-32.6 0.3,0 2.5,7.3 4.8,16.2 z"
     id="path4"
     style="fill:#000000;stroke:none;stroke-width:0.1" />
  <path
     d="m 744.66118,105.10562 c -1.1,2.1 -35,89.8 -35,90.6 0,0.3 5,0.3 11.1,0.2 l 11.1,-0.3 1.7,-4.5 c 1,-2.5 3.2,-8.4 5.1,-13.3 l 3.3,-8.7 h 15.7 15.6 l 4.3,13.5 4.2,13.5 h 11.4 c 6.3,0 11.5,-0.3 11.5,-0.8 0,-0.4 -6.9,-21.2 -15.4,-46.2 l -15.4,-45.5 -14,-0.3 c -13.4,-0.2 -14.2,-0.2 -15.2,1.8 z m 18.7,30.2 c 2.3,9 4.1,16.3 4,16.5 -0.6,0.5 -17.8,0.5 -18.4,-0.1 -0.7,-0.7 8.7,-32.6 9.6,-32.6 0.3,0 2.5,7.3 4.8,16.2 z"
     id="path4-0"
     style="fill:#000000;stroke:none;stroke-width:0.1" />
  <path
     d="m 243.2,103.6 c -0.4,0.4 -0.7,21.4 -0.7,46.6 V 196 h 11.5 11.5 v -12.9 -12.8 l 9.2,-0.8 c 16.7,-1.3 27.7,-6.4 34.2,-15.8 4.4,-6.4 6,-12.9 5.4,-21.1 -0.7,-8.2 -3.6,-14.5 -9.3,-20 -8.1,-7.9 -12.4,-9 -38.5,-9.4 -12.4,-0.2 -22.8,0 -23.3,0.4 z m 42.1,19.4 c 4.4,2.7 6.5,8 6,14.8 -0.8,9.8 -6.6,14.2 -18.5,14.2 h -7.3 V 136.5 121 h 8.3 c 6.5,0 8.9,0.4 11.5,2 z"
     id="path5"
     style="fill:#000000;stroke:none;stroke-width:0.1" />
  <path
     d="m 551.4,104.4 c -0.3,0.8 -0.4,15.5 -0.2,32.8 0.4,30.2 0.5,31.5 2.7,37.3 3.3,8.1 11.5,16.4 19.3,19.3 12.4,4.6 28.1,4.7 40.2,0.2 11.7,-4.4 20.5,-16.2 22.6,-30.5 0.6,-3.9 0.9,-18.6 0.8,-33.5 l -0.3,-26.5 -10.7,-0.3 -10.6,-0.3 -0.4,30.8 c -0.3,29.3 -0.4,31 -2.5,34.8 -2.6,5 -5.8,7.9 -10.2,9.4 -7,2.3 -17.6,0.6 -22.3,-3.6 -5.1,-4.6 -5.3,-5.7 -5.8,-39.3 l -0.5,-31.5 -10.8,-0.3 c -8.7,-0.2 -10.8,0 -11.3,1.2 z"
     id="path6"
     style="fill:#000000;stroke:none;stroke-width:0.1" />
  <path
     d="M 643.5,149.5 V 196 h 31 31 v -9 -9 h -20 -20 V 140.5 103 h -11 -11 z"
     id="path7"
     style="fill:#000000;stroke:none;stroke-width:0.1" />
  <path
     d="m 577.74689,308.46848 c -17.6,2.7 -37.6,10.8 -50.5,20.6 -11.6,8.9 -23.5,24.1 -27.5,35.5 l -1,2.7 2.6,-3 c 20.6,-24 41.6,-35.8 71.9,-40.6 10.4,-1.6 60.7,-1.6 73.5,0 31.1,3.9 46.7,9.4 64.5,22.5 9.7,7.2 10.8,7.7 5,2 -15.6,-15 -25.8,-22.7 -38.1,-28.5 -10.3,-4.8 -32.4,-10 -50.2,-11.8 -14,-1.5 -38.7,-1.2 -50.2,0.6 z"
     id="path1-4-5"
     style="fill:#000000;stroke:none;stroke-width:0.1" />
  <path
     d="m 513.38839,379.65445 c -2.94615,-0.57464 -9.65441,-1.02093 -14.93549,-1.00556 -8.47569,-0.0511 -10.7485,0.41188 -20.42846,3.6288 -17.02497,5.84382 -25.11692,13.37909 -30.7655,28.95676 -2.80806,7.83612 -6.14573,23.67783 -5.33409,26.04241 0.29219,0.85125 3.1325,0.1935 10.79374,-2.43622 9.17457,-3.14917 10.4338,-3.79286 10.41973,-5.37394 -0.37379,-10.02149 4.15949,-22.99605 10.45154,-30.2307 8.2967,-9.40291 22.43764,-15.94842 37.16427,-17.09143 4.20257,-0.38526 7.7727,-0.7649 7.89694,-1.019 0.12423,-0.25409 -2.31653,-0.89648 -5.26268,-1.47112 z"
     id="path2-8"
     style="fill:#000000;stroke:none;stroke-width:0.1"
     sodipodi:nodetypes="scccsscccss" />
  <path
     d="m 657.91505,324.43752 c -5.3781,-1.16393 -17.96591,-2.97017 -28.02116,-4.03314 -16.1078,-1.78012 -20.61632,-1.79085 -40.31233,-0.61761 -34.71484,2.24551 -53.10254,7.97033 -70.0319,22.06697 -8.45256,7.09792 -21.08938,21.92477 -20.48317,24.40524 0.21825,0.89297 5.88394,0.82885 21.50564,-0.18163 18.70744,-1.21008 21.35898,-1.58317 21.95955,-3.13383 3.26506,-9.88678 17.03932,-21.66279 31.88276,-27.46073 19.51835,-7.51134 49.02372,-11.03248 77.49996,-9.14531 8.14975,0.48071 15.09386,0.83783 15.43107,0.61444 0.33722,-0.22338 -4.05231,-1.35047 -9.43042,-2.5144 z"
     id="path2-8-7"
     style="fill:#ebb41e;fill-opacity:1;stroke:#000000;stroke-width:0.13942;stroke-opacity:1" />
  <path
     d="m 635.0447,527.9861 c 17.48251,-1.99065 37.67548,-10.76203 50.9968,-22.33853 11.98454,-10.52321 24.67283,-29.17063 29.34595,-43.57653 l 1.15854,-3.40743 -2.75141,3.65895 c -21.81457,29.28877 -43.23095,42.76121 -73.33855,46.38454 -10.33087,1.18217 -59.79449,-3.11085 -72.27784,-6.27313 -30.32986,-7.69946 -45.31361,-16.14583 -61.96772,-34.61148 -9.07158,-10.14197 -10.12086,-10.88266 -4.78711,-3.014 14.36742,20.73579 23.89825,31.56724 35.61742,40.12003 9.81731,7.08849 31.21246,15.70153 48.5997,19.54925 13.6699,3.13532 37.97865,4.85535 49.40422,3.50833 z"
     id="path1-4-5-3"
     style="fill:#000000;stroke:none;stroke-width:0.113033" />
  <path
     d="m 557.24562,500.48595 c 5.21316,1.9647 17.47447,5.37565 27.29356,7.60893 15.72447,3.67758 20.15732,4.07626 39.60195,4.23955 34.2833,0.0581 52.73666,-5.77838 70.2991,-22.56922 8.77253,-8.46061 22.16117,-26.56245 21.72597,-29.82297 -0.15667,-1.17379 -5.73232,-1.5744 -21.15983,-1.60052 -18.47488,-0.0313 -21.10653,0.22507 -21.79772,2.17979 -3.85222,12.51109 -18.16146,26.5692 -33.13425,32.80268 -19.68113,8.05097 -48.92434,10.08777 -76.80464,5.21607 -7.98305,-1.31742 -14.78852,-2.37207 -15.13462,-2.11187 -0.3461,0.26018 3.89732,2.09285 9.11048,4.05756 z"
     id="path2-8-7-2"
     style="fill:#ebb41e;fill-opacity:1;stroke:#000000;stroke-width:0.157591;stroke-opacity:1" />
  <path
     d="m 521.65393,393.72342 c -6.3,2.5 -10,8.5 -10,16.2 0,6.9 3.8,12.6 9.9,15.1 5.3,2.1 8.6,2 13.7,-0.3 10.4,-4.7 13.1,-17.3 5.7,-26.2 -4.5,-5.3 -12.8,-7.4 -19.3,-4.8 z"
     id="path9-8"
     style="fill:#000000;stroke:none;stroke-width:0.1" />
  <path
     d="m 581.15393,401.22342 c -23.6,4.5 -36.3,13.5 -40,28.2 l -1.2,4.7 -12.2,0.3 c -6.6,0.1 -12.1,0.1 -12.1,-0.2 0,-0.3 0.4,-1.6 0.9,-2.9 0.8,-2 0.4,-2.8 -2.1,-5.3 -1.7,-1.6 -4,-4.8 -5,-7.1 -1,-2.4 -2.1,-4.3 -2.3,-4.3 -0.5,0 -13.5,27 -13.5,28 0,2.3 2.5,5.9 4.7,6.9 1.7,0.8 29.4,1.1 95.4,1.1 h 93.1 l 2.9,-2.9 c 3.3,-3.4 3.6,-5.6 1.2,-9.1 -2.5,-3.7 -3.2,-4 -10.5,-4 -6.6,0 -6.6,0 -10,-4.2 -8.4,-10.7 -24.2,-28 -26.4,-28.8 -3.6,-1.4 -6.7,0.2 -15.6,8 l -7.9,7 -16.2,-0.1 c -15.5,-0.1 -16,-0.2 -10.4,-1.4 6.8,-1.5 9.7,-3.8 9.7,-7.6 0,-3.4 -3.6,-7.7 -7,-8.3 -1.4,-0.3 -8.3,0.6 -15.5,2 z m 69.8,31.1 1.8,2.3 h -13.5 c -7.5,0 -13.6,-0.2 -13.6,-0.4 0,-0.2 3.4,-3.4 7.6,-7 l 7.6,-6.7 4.1,4.8 c 2.3,2.5 5,5.7 6,7 z"
     id="path10-2"
     style="fill:#000000;stroke:none;stroke-width:0.1" />
  <path
     d="m 549.15393,455.62342 c -17.6,0.4 -37.8,1.1 -45,1.6 -12.7,0.8 -12.8,0.8 -6.5,1.5 14.1,1.6 94.7,3 134.5,2.4 37.7,-0.7 41.2,-0.6 42.5,0.9 2.8,3.4 2.4,20.1 -0.6,28 -0.3,0.9 -0.1,1.6 0.5,1.6 2.8,0 10.9,-20.6 11.4,-28.6 l 0.2,-3.9 7.5,-0.5 c 15.1,-1.1 0.9,-2 -45.5,-3 -48.6,-1.1 -48.9,-1.1 -99,0 z"
     id="path11-4"
     style="fill:#000000;stroke:none;stroke-width:0.1" />
  <path
     d="m 405.48226,30.686503 c -17.6,2.7 -37.6,10.8 -50.5,20.6 -11.6,8.9 -23.5,24.1 -27.5,35.5 l -1,2.7 2.6,-3 c 20.6,-24 41.6,-35.8 71.9,-40.6 10.4,-1.6 60.7,-1.6 73.5,0 31.1,3.9 46.7,9.4 64.5,22.5 9.7,7.2 10.8,7.7 5,2 -15.6,-15 -25.8,-22.7 -38.1,-28.5 -10.3,-4.8 -32.4,-10 -50.2,-11.8 -14,-1.5 -38.7,-1.2 -50.2,0.6 z"
     id="path1-4-5-2"
     style="fill:#000000;stroke:none;stroke-width:0.1" />
  <path
     d="m 248.10823,84.411577 c -1.64637,-0.438615 -5.56447,-1.145681 -8.72104,-1.578272 -5.05116,-0.719902 -6.49931,-0.751697 -12.91167,-0.465947 -11.31453,0.565474 -17.62711,2.443646 -24.06081,7.244892 -3.21645,2.417964 -8.32211,7.500096 -8.30202,8.367253 0.007,0.312176 1.83253,0.325134 6.92408,0.07067 6.09727,-0.304728 6.97568,-0.418084 7.27791,-0.954087 1.74582,-3.420984 7.00206,-7.434124 12.18078,-9.359811 6.80182,-2.492971 16.532,-3.534887 25.55048,-2.700734 2.58522,0.218062 4.79169,0.385594 4.9158,0.30994 0.12409,-0.07565 -1.20714,-0.495291 -2.85351,-0.933904 z"
     id="path2-8-1-8"
     style="fill:#000000;stroke:none;stroke-width:0.0467209"
     sodipodi:nodetypes="scccsscccss"
     inkscape:transform-center-x="18.123848"
     inkscape:transform-center-y="-0.074894884" />
  <path
     d="m 485.65042,46.655543 c -5.3781,-1.16393 -17.96591,-2.97017 -28.02116,-4.03314 -16.1078,-1.78012 -20.61632,-1.79085 -40.31233,-0.61761 -34.71484,2.24551 -53.10254,7.97033 -70.0319,22.06697 -8.45256,7.09792 -21.08938,21.92477 -20.48317,24.40524 0.21825,0.89297 5.88394,0.82885 21.50564,-0.18163 18.70744,-1.21008 21.35898,-1.58317 21.95955,-3.13383 3.26506,-9.88678 17.03932,-21.66279 31.88276,-27.46073 19.51835,-7.51134 49.02372,-11.03248 77.49996,-9.14531 8.14975,0.48071 15.09386,0.83783 15.43107,0.61444 0.33722,-0.22338 -4.05231,-1.35047 -9.43042,-2.5144 z"
     id="path2-8-7-6"
     style="fill:#ebb41e;fill-opacity:1;stroke:#000000;stroke-width:0.13942;stroke-opacity:1" />
  <path
     d="m 462.78007,250.20412 c 17.48251,-1.99065 37.67548,-10.76203 50.9968,-22.33853 11.98454,-10.52321 24.67283,-29.17063 29.34595,-43.57653 l 1.15854,-3.40743 -2.75141,3.65895 c -21.81457,29.28877 -43.23095,42.76121 -73.33855,46.38454 -10.33087,1.18217 -59.79449,-3.11085 -72.27784,-6.27313 -30.32986,-7.69946 -45.31361,-16.14583 -61.96772,-34.61148 -9.07158,-10.14197 -10.12086,-10.88266 -4.78711,-3.014 14.36742,20.73579 23.89825,31.56724 35.61742,40.12003 9.81731,7.08849 31.21246,15.70153 48.5997,19.54925 13.6699,3.13532 37.97865,4.85535 49.40422,3.50833 z"
     id="path1-4-5-3-8"
     style="fill:#000000;stroke:none;stroke-width:0.113033" />
  <path
     d="m 384.98099,222.70397 c 5.21316,1.9647 17.47447,5.37565 27.29356,7.60893 15.72447,3.67758 20.15732,4.07626 39.60195,4.23955 34.2833,0.0581 52.73666,-5.77838 70.2991,-22.56922 8.77253,-8.46061 22.16117,-26.56245 21.72597,-29.82297 -0.15667,-1.17379 -5.73232,-1.5744 -21.15983,-1.60052 -18.47488,-0.0313 -21.10653,0.22507 -21.79772,2.17979 -3.85222,12.51109 -18.16146,26.5692 -33.13425,32.80268 -19.68113,8.05097 -48.92434,10.08777 -76.80464,5.21607 -7.98305,-1.31742 -14.78852,-2.37207 -15.13462,-2.11187 -0.3461,0.26018 3.89732,2.09285 9.11048,4.05756 z"
     id="path2-8-7-2-5"
     style="fill:#ebb41e;fill-opacity:1;stroke:#000000;stroke-width:0.157591;stroke-opacity:1" />
  <path
     d="m 349.3893,115.94144 c -6.3,2.5 -10,8.5 -10,16.2 0,6.9 3.8,12.6 9.9,15.1 5.3,2.1 8.6,2 13.7,-0.3 10.4,-4.7 13.1,-17.3 5.7,-26.2 -4.5,-5.3 -12.8,-7.4 -19.3,-4.8 z"
     id="path9-8-7"
     style="fill:#000000;stroke:none;stroke-width:0.1" />
  <path
     d="m 408.8893,123.44144 c -23.6,4.5 -36.3,13.5 -40,28.2 l -1.2,4.7 -12.2,0.3 c -6.6,0.1 -12.1,0.1 -12.1,-0.2 0,-0.3 0.4,-1.6 0.9,-2.9 0.8,-2 0.4,-2.8 -2.1,-5.3 -1.7,-1.6 -4,-4.8 -5,-7.1 -1,-2.4 -2.1,-4.3 -2.3,-4.3 -0.5,0 -13.5,27 -13.5,28 0,2.3 2.5,5.9 4.7,6.9 1.7,0.8 29.4,1.1 95.4,1.1 h 93.1 l 2.9,-2.9 c 3.3,-3.4 3.6,-5.6 1.2,-9.1 -2.5,-3.7 -3.2,-4 -10.5,-4 -6.6,0 -6.6,0 -10,-4.2 -8.4,-10.7 -24.2,-28 -26.4,-28.8 -3.6,-1.4 -6.7,0.2 -15.6,8 l -7.9,7 -16.2,-0.1 c -15.5,-0.1 -16,-0.2 -10.4,-1.4 6.8,-1.5 9.7,-3.8 9.7,-7.6 0,-3.4 -3.6,-7.7 -7,-8.3 -1.4,-0.3 -8.3,0.6 -15.5,2 z m 69.8,31.1 1.8,2.3 h -13.5 c -7.5,0 -13.6,-0.2 -13.6,-0.4 0,-0.2 3.4,-3.4 7.6,-7 l 7.6,-6.7 4.1,4.8 c 2.3,2.5 5,5.7 6,7 z"
     id="path10-2-6"
     style="fill:#000000;stroke:none;stroke-width:0.1" />
  <path
     d="m 376.8893,177.84144 c -17.6,0.4 -37.8,1.1 -45,1.6 -12.7,0.8 -12.8,0.8 -6.5,1.5 14.1,1.6 94.7,3 134.5,2.4 37.7,-0.7 41.2,-0.6 42.5,0.9 2.8,3.4 2.4,20.1 -0.6,28 -0.3,0.9 -0.1,1.6 0.5,1.6 2.8,0 10.9,-20.6 11.4,-28.6 l 0.2,-3.9 7.5,-0.5 c 15.1,-1.1 0.9,-2 -45.5,-3 -48.6,-1.1 -48.9,-1.1 -99,0 z"
     id="path11-4-1"
     style="fill:#000000;stroke:none;stroke-width:0.1" />
</svg>
